<svg width="288" height="166" fill="none" xmlns="http://www.w3.org/2000/svg"><path d="M287.171 58.58c0-3.057-.735-5.787-2.204-8.19-1.469-2.401-3.516-4.272-6.142-5.614-2.625-1.341-5.58-2.013-8.862-2.013h-12.847v31.82h12.847c3.282 0 6.237-.68 8.862-2.036 2.626-1.358 4.673-3.245 6.142-5.663 1.469-2.417 2.204-5.185 2.204-8.305zm-8.065 0c0 1.653-.399 3.157-1.196 4.515a8.579 8.579 0 01-3.306 3.204c-1.406.78-2.953 1.17-4.641 1.17h-4.923V49.877h4.923c1.688 0 3.227.381 4.619 1.145a8.76 8.76 0 013.305 3.136c.813 1.325 1.219 2.8 1.219 4.421zM264.29 88.2c-2.251-.951-4.689-1.428-7.314-1.428-3.221 0-6.128.718-8.722 2.153a15.72 15.72 0 00-6.119 6.013c-1.485 2.573-2.227 5.482-2.227 8.726 0 3.027.719 5.772 2.156 8.236 1.438 2.464 3.454 4.414 6.049 5.848 2.595 1.435 5.517 2.152 8.768 2.152 4.282 0 7.643-1.496 10.081-4.492l.328 3.837h5.908v-17.874h-17.067v6.224l9.143.093c-.782 1.529-1.868 2.722-3.258 3.58-1.392.859-2.995 1.286-4.807 1.286-1.845 0-3.47-.405-4.876-1.216-1.407-.811-2.493-1.902-3.259-3.276-.766-1.371-1.148-2.901-1.148-4.585 0-1.841.39-3.478 1.172-4.913.781-1.434 1.867-2.55 3.258-3.346 1.391-.795 2.978-1.193 4.76-1.193 1.656 0 3.148.36 4.477 1.077 1.329.717 2.322 1.933 2.977 3.65h8.3c-.438-2.465-1.415-4.602-2.931-6.412-1.515-1.808-3.399-3.188-5.649-4.14zm-43.277-13.618h24.1v-6.879h-16.176v-5.521h14.113v-6.738h-14.113v-5.802h16.176v-6.879h-24.1v31.82zm-1.361 12.845v17.922l-15.379-17.922h-6.048v31.818h7.924v-17.452l15.286 17.452h6.142V87.427h-7.925zM199.82 49.83h10.127v-7.067h-28.226v7.067h10.174v24.752h7.925V49.83zm-30.524 24.752h8.393l-13.504-32.006h-7.549l-13.551 32.006h8.44l2.111-5.475h13.502l2.158 5.475zm-4.783-12.213h-8.252l4.125-10.575 4.127 10.575zm-37.697 12.4l13.831-32.006h-8.721l-9.096 21.572-9.097-21.572h-8.721l13.833 32.006h7.971zM110.688 87.24h-7.549l-13.551 32.005h8.439l2.11-5.474h13.504l2.157 5.474h8.393L110.688 87.24zm-3.799 9.218l4.126 10.575h-8.252l4.126-10.575zM71.862 74.582h24.1v-6.879H79.787v-5.521H93.9v-6.738H79.787v-5.802h16.175v-6.879h-24.1v31.82zm.496 14.203c-1.987-.904-4.29-1.358-6.917-1.358H51.469v31.818h7.924v-9.217h4.923l6.846 9.217h9.565l-8.206-10.762c1.938-.966 3.438-2.308 4.502-4.023 1.062-1.716 1.594-3.666 1.594-5.849 0-2.277-.548-4.259-1.641-5.942-1.095-1.685-2.635-2.98-4.618-3.884zm-1.62 9.826c0 1.279-.522 2.316-1.57 3.111-1.047.795-2.352 1.194-3.915 1.194h-5.86v-8.517h5.86c1.563 0 2.868.39 3.915 1.17 1.048.78 1.57 1.795 1.57 3.042zM36.933 74.582H60.61V67.61H44.856V42.763h-7.924v31.82zm-36.103 0h24.1v-6.879H8.754v-5.521h14.113v-6.738H8.753v-5.802H24.93v-6.879H.83v31.82zm39.574 12.845H12.177v7.066H22.35v24.752h7.924V94.493h10.128v-7.066zm107.56 0h-12.849v31.818h12.849c3.282 0 6.235-.678 8.861-2.034 2.625-1.358 4.672-3.245 6.142-5.663 1.47-2.417 2.203-5.186 2.203-8.305 0-3.057-.733-5.786-2.203-8.188-1.47-2.402-3.517-4.274-6.142-5.616-2.626-1.34-5.579-2.012-8.861-2.012zm-4.924 7.113h4.924c1.687 0 3.226.382 4.618 1.146a8.76 8.76 0 013.305 3.135c.812 1.326 1.219 2.801 1.219 4.422 0 1.654-.398 3.158-1.195 4.516a8.58 8.58 0 01-3.306 3.204c-1.406.781-2.954 1.17-4.641 1.17h-4.924V94.54zm42.058-7.113h-7.924v31.818h7.924V87.427z" fill="#2D2926"/><path d="M151.425 22.6L135.718 1.078 119.477 22.6" fill="#959889"/><path d="M167.399 22.6L151.692 1.078 135.451 22.6" fill="#959889"/><path fill-rule="evenodd" clip-rule="evenodd" d="M143.571 11.839l7.854 10.762h-15.974l8.12-10.762z" fill="#575B4A"/><path d="M89.943 160.915h111.252" stroke="#2D2926" stroke-width=".858"/><path d="M21.32 164.598v-5.053h6.734v5.053H29.7v-10.622h-1.647v4.116h-6.735v-4.116h-1.647v10.622h1.647zm20.772-6.296h-4.564v-2.854h7.519v-1.472H35.88v10.622h9.568v-1.452h-7.921v-3.391h4.564v-1.453zm8.309 6.296h1.57v-7.732h.096l3.99 6.182h.327l4.01-6.182h.077v7.732h1.647v-10.622h-1.667l-4.125 6.449h-.038l-4.164-6.449h-1.723v10.622zm19.543 0v-4.192h4.49c1.516 0 2.456-.345 3.26-1.109a2.912 2.912 0 00.881-2.106 2.92 2.92 0 00-.861-2.106c-.825-.821-1.88-1.109-3.241-1.109h-6.176v10.622h1.647zm4.529-9.15c.767 0 1.477.095 2.033.67.27.288.422.652.422 1.073 0 .421-.172.824-.48 1.13-.46.441-.997.633-2.034.633h-4.47v-3.506h4.529zm152.641-.229c-.882-.669-2.839-1.567-5.199-1.567-2.053 0-4.545.764-4.545 3.253 0 2.506 2.798 2.678 5.274 2.85 1.957.134 3.55.383 3.55 1.857 0 1.303-1.516 1.897-3.358 1.897-2.552 0-4.144-1.15-5.082-1.954l-.997 1.15c1.245 1.053 3.105 2.219 6.041 2.219 2.724 0 5.062-1.014 5.062-3.541 0-2.909-3.202-3.099-5.216-3.215-1.804-.115-3.626-.172-3.626-1.417 0-1.226 1.4-1.667 2.84-1.667 2.09 0 3.587.71 4.24 1.265l1.016-1.13zm7.441 9.379v-4.192h4.49c1.515 0 2.455-.345 3.26-1.109a2.913 2.913 0 00.881-2.106 2.92 2.92 0 00-.862-2.106c-.824-.821-1.879-1.109-3.241-1.109h-6.176v10.622h1.648zm4.528-9.15c.767 0 1.477.095 2.034.67.268.288.422.652.422 1.073 0 .421-.173.824-.48 1.13-.46.441-.998.633-2.034.633h-4.47v-3.506h4.528zm8.939-1.472v10.622h8.763v-1.452h-7.115v-9.17h-1.648zm19.103 0l-3.471 4.23-3.49-4.23h-2.072l4.662 5.704v4.918h1.627v-4.918l4.68-5.704h-1.936z" fill="#2D2926"/></svg>
