<?xml version="1.0" encoding="UTF-8" standalone="no"?>
<!DOCTYPE svg PUBLIC "-//W3C//DTD SVG 1.1//EN" "http://www.w3.org/Graphics/SVG/1.1/DTD/svg11.dtd">
<svg xmlns="http://www.w3.org/2000/svg" xmlns:xlink="http://www.w3.org/1999/xlink" version="1.1" width="360pt" height="360pt" viewBox="0 0 360 360">
<g enable-background="new">
<g id="Layer-1" data-name="Artifact">
<path transform="matrix(1,0,0,-1,0,360)" d="M 237.336 133.201 L 205.193 133.201 L 205.193 131.64601 L 237.336 131.64601 Z M 213.304 171.875 L 215.121 171.875 L 182.154 226.363 L 159.438 190.038 L 161.271 190.038 L 182.133 223.397 Z M 122.664 131.661 L 159.236 131.661 L 159.236 133.216 L 125.559 133.216 L 140.425 155.649 L 138.561 155.649 Z " fill="#9b9f91"/>
<path transform="matrix(1,0,0,-1,144.2658,184.7613)" d="M 0 0 L 0 4.239 L 11.793 4.239 L 11.793 9.264 L -5.777 9.264 L -5.777 -13.981 L 11.793 -13.981 L 11.793 -8.956 L 0 -8.956 L 0 -4.922 L 10.289 -4.922 L 10.289 0 Z " fill="#231f20"/>
<clipPath id="cp0">
<path transform="matrix(1,0,0,-1,0,360)" d="M 0 0 L 360 0 L 360 360 L 0 360 Z "/>
</clipPath>
<g clip-path="url(#cp0)">
<path transform="matrix(1,0,0,-1,164.5567,231.0796)" d="M 0 0 L 0 3.282 L 4.365 3.282 L 4.365 0 L 5.432 0 L 5.432 6.897 L 4.365 6.897 L 4.365 4.225 L 0 4.225 L 0 6.897 L -1.067 6.897 L -1.067 0 Z M 13.462 4.088 L 10.503 4.088 L 10.503 5.942 L 15.376 5.942 L 15.376 6.897 L 9.436 6.897 L 9.436 0 L 15.637 0 L 15.637 .943 L 10.503 .943 L 10.503 3.145 L 13.462 3.145 Z M 18.845 0 L 19.863 0 L 19.863 5.021 L 19.925 5.021 L 22.511 1.007 L 22.723 1.007 L 25.321 5.021 L 25.371 5.021 L 25.371 0 L 26.439 0 L 26.439 6.897 L 25.359 6.897 L 22.685 2.709 L 22.661 2.709 L 19.963 6.897 L 18.845 6.897 Z M 31.51 0 L 31.51 2.722 L 34.42 2.722 C 35.402 2.722 36.011 2.946 36.533 3.442 C 36.88 3.79 37.104 4.25 37.104 4.81 C 37.104 5.345 36.905 5.817 36.545 6.177 C 36.011 6.711 35.327 6.897 34.445 6.897 L 30.443 6.897 L 30.443 0 Z M 34.445 5.942 C 34.942 5.942 35.402 5.879 35.763 5.506 C 35.937 5.32 36.036 5.083 36.036 4.81 C 36.036 4.536 35.924 4.275 35.725 4.076 C 35.427 3.79 35.079 3.665 34.407 3.665 L 31.51 3.665 L 31.51 5.942 Z " fill="#231f20"/>
</g>
<path transform="matrix(1,0,0,-1,185.0717,134.082)" d="M 0 0 L 7.383 0 L 7.383 5.162 L -13.195 5.162 L -13.195 0 L -5.777 0 L -5.777 -18.083 L 0 -18.083 Z " fill="#231f20"/>
<clipPath id="cp1">
<path transform="matrix(1,0,0,-1,0,360)" d="M 0 0 L 360 0 L 360 360 L 0 360 Z "/>
</clipPath>
<g clip-path="url(#cp1)">
<path transform="matrix(1,0,0,-1,222.9655,212.8886)" d="M 0 0 C -1.254 0 -2.364 .291 -3.333 .872 C -4.302 1.453 -5.059 2.25 -5.606 3.264 C -6.153 4.278 -6.426 5.423 -6.426 6.7 C -6.426 7.976 -6.153 9.121 -5.606 10.135 C -5.059 11.149 -4.302 11.947 -3.333 12.528 C -2.364 13.109 -1.254 13.4 0 13.4 C 1.526 13.4 2.791 12.984 3.794 12.152 C 4.797 11.32 5.457 10.163 5.777 8.682 L 11.69 8.682 C 11.462 10.665 10.824 12.425 9.776 13.964 C 8.728 15.502 7.366 16.692 5.691 17.536 C 4.016 18.379 2.131 18.8 .034 18.8 C -2.268 18.8 -4.358 18.282 -6.238 17.245 C -8.118 16.208 -9.594 14.767 -10.665 12.921 C -11.736 11.075 -12.272 9.001 -12.272 6.7 C -12.272 4.398 -11.736 2.324 -10.665 .479 C -9.594 -1.367 -8.118 -2.809 -6.238 -3.846 C -4.358 -4.883 -2.268 -5.401 .034 -5.401 C 2.131 -5.401 4.016 -4.979 5.691 -4.136 C 7.366 -3.293 8.728 -2.102 9.776 -.564 C 10.824 .974 11.462 2.735 11.69 4.717 L 5.777 4.717 C 5.457 3.236 4.797 2.079 3.794 1.248 C 2.791 .416 1.526 0 0 0 " fill="#231f20"/>
</g>
</g>
</g>
</svg>
