<svg width="40" height="40" viewBox="0 0 40 40" fill="none" xmlns="http://www.w3.org/2000/svg">
<path d="M19.375 16.875H20.625V18.125H19.375V16.875Z" fill="#F0E9E2"/>
<path d="M19.375 6.875H20.625V15.625H19.375V6.875Z" fill="#F0E9E2"/>
<path d="M32.2062 24.905L31.5437 23.845C31.5393 23.8475 31.1293 24.1018 30.3981 24.4575L30.9449 25.5818C31.7424 25.1937 32.1874 24.9162 32.2062 24.905Z" fill="#F0E9E2"/>
<path d="M38.0731 19.5337C34.3618 19.8424 30.8643 21.1799 28.3693 22.3868C33.9287 15.8462 36.7056 8.13682 36.8393 7.76057L37.3337 6.36744L35.99 6.98307C29.8968 9.77619 26.7456 13.0774 25.1843 15.3218C25.1568 7.35744 20.7162 1.17057 20.505 0.881191L20 0.189941L19.495 0.881191C19.2837 1.17057 14.8431 7.35744 14.8162 15.3218C13.255 13.0774 10.1037 9.77619 4.01059 6.98307L2.66684 6.36744L3.16121 7.76057C3.29496 8.13744 6.07184 15.8468 11.6312 22.3868C9.13621 21.1793 5.63871 19.8424 1.92746 19.5337L0.850586 19.4437L1.30871 20.4212C1.37621 20.5656 3.00496 24.0006 5.81684 26.7006C7.73184 28.5393 10.1931 29.9274 12.2668 30.4412C11.0243 31.3337 9.50496 32.8924 8.77309 35.4531L8.55371 36.2212L9.35184 36.2487C9.64246 36.2606 15.7562 36.4293 19.375 33.4068V39.3749H20.625V33.4081C23.8062 36.0649 28.9143 36.2543 30.3 36.2543C30.4912 36.2543 30.6118 36.2506 30.6468 36.2493L31.445 36.2218L31.2256 35.4537C30.4937 32.8931 28.9743 31.3343 27.7318 30.4418C29.8056 29.9281 32.2668 28.5399 34.1818 26.7012C36.9937 24.0012 38.6218 20.5668 38.69 20.4218L39.1481 19.4443L38.0731 19.5337ZM33.3175 25.7987C30.985 28.0393 27.575 29.6481 25.7137 29.3806L25.4275 30.5918C25.46 30.6031 28.4137 31.6237 29.7506 34.9906C27.7925 34.9199 22.9725 34.4481 20.625 31.6406V29.7574C22.9193 32.0674 25.2775 33.0337 25.3931 33.0793L25.8568 31.9187C25.8287 31.9074 23.1068 30.7924 20.7956 28.0987C24.5281 27.9706 27.6687 26.9887 29.6906 26.1462L29.2093 24.9924C27.3718 25.7574 24.57 26.6493 21.235 26.8343C25.4237 20.9637 30.4306 14.8343 30.4837 14.7693L29.5156 13.9781C29.4643 14.0406 24.7487 19.8137 20.6243 25.5406V19.3749H19.3743V25.5412C16.6356 21.7374 13.6562 17.9412 12.0043 15.8693L11.0268 16.6481C12.7543 18.8143 15.9375 22.8731 18.7668 26.8399C12.7981 26.5062 8.50121 23.8731 8.45496 23.8443L7.79246 24.9043C7.99496 25.0312 12.6437 27.8787 19.1925 28.1024C18.3737 29.0562 17.4243 29.9212 16.3481 30.6662L17.06 31.6943C17.9037 31.1099 18.6725 30.4537 19.3743 29.7462V31.6406C17.0312 34.4431 12.2075 34.9174 10.2481 34.9899C11.5687 31.6499 14.4425 30.6362 14.5718 30.5924L14.2856 29.3812C12.4237 29.6481 9.01434 28.0399 6.68184 25.7993C4.94059 24.1274 3.65746 22.1049 2.98121 20.9124C9.14434 21.8037 14.5887 25.4774 14.6468 25.5168L15.4212 24.5399C9.76871 19.3568 6.24246 11.9393 4.92559 8.81619C13.2706 13.0956 15.0118 18.2587 15.0287 18.3112L16.2443 18.0399C15.2668 10.8687 18.6756 4.52932 20.0006 2.38744C21.3262 4.52682 24.735 10.8574 23.7556 18.0399L24.9706 18.3131C24.9881 18.2587 26.7306 13.0943 35.075 8.81557C33.7593 11.9368 30.2362 19.3512 24.5775 24.5387L25.3525 25.5156C25.41 25.4762 30.8462 21.8031 37.0181 20.9112C36.3437 22.1024 35.0625 24.1237 33.3175 25.7987Z" fill="#F0E9E2"/>
<path d="M9.51685 14.7713C9.51747 14.7719 9.79372 15.11 10.2706 15.7025L11.245 14.9188C10.7631 14.32 10.4837 13.9788 10.4837 13.9788L9.51685 14.7713Z" fill="#F0E9E2"/>
<path d="M14.6068 33.0806C14.6293 33.0712 15.1662 32.8556 15.965 32.3906L15.3362 31.3099C14.6237 31.7237 14.1475 31.9174 14.1425 31.9199L14.6068 33.0806Z" fill="#F0E9E2"/>
</svg>
