<svg width="40" height="40" viewBox="0 0 40 40" fill="none" xmlns="http://www.w3.org/2000/svg">
<g clip-path="url(#clip0)">
<path d="M5.9375 16.4844H1.17188C0.524687 16.4844 0 17.0091 0 17.6562C0 18.3034 0.524687 18.8281 1.17188 18.8281H5.9375C6.58469 18.8281 7.10938 18.3034 7.10938 17.6562C7.10938 17.0091 6.58469 16.4844 5.9375 16.4844Z" fill="#F0E9E2"/>
<path d="M36.4062 16.4844H31.7188C31.0716 16.4844 30.5469 17.0091 30.5469 17.6562C30.5469 18.3034 31.0716 18.8281 31.7188 18.8281H36.4062C37.0534 18.8281 37.5781 18.3034 37.5781 17.6562C37.5781 17.0091 37.0534 16.4844 36.4062 16.4844Z" fill="#F0E9E2"/>
<path d="M32.0865 4.39805C31.6289 3.9404 30.8869 3.9404 30.4293 4.39805L27.1147 7.71258C26.6571 8.17024 26.6571 8.91219 27.1147 9.36985C27.5723 9.82751 28.3143 9.82758 28.772 9.36985L32.0865 6.05532C32.5442 5.59758 32.5442 4.85563 32.0865 4.39805Z" fill="#F0E9E2"/>
<path d="M10.5416 7.71264L7.22699 4.39811C6.76941 3.94038 6.02738 3.94038 5.5698 4.39811C5.11215 4.85577 5.11215 5.59772 5.5698 6.05538L8.88434 9.36991C9.34191 9.82756 10.0839 9.82764 10.5416 9.36991C10.9993 8.91225 10.9993 8.1703 10.5416 7.71264Z" fill="#F0E9E2"/>
<path d="M18.8281 0C18.1809 0 17.6562 0.524687 17.6562 1.17188V5.9375C17.6562 6.58469 18.1809 7.10938 18.8281 7.10938C19.4753 7.10938 20 6.58469 20 5.9375V1.17188C20 0.524687 19.4753 0 18.8281 0Z" fill="#F0E9E2"/>
<path d="M39.7959 38.1673L27.9806 20.8634C28.1281 20.1978 28.2031 19.5158 28.2031 18.8281C28.2031 13.6588 23.9975 9.45312 18.8281 9.45312C13.6588 9.45312 9.45313 13.6588 9.45313 18.8281C9.45313 20.8598 10.0924 22.793 11.302 24.419C12.1789 25.5978 13.2957 26.5373 14.5804 27.1886L11.5337 31.7586L9.21876 28.6719C8.99758 28.377 8.65063 28.2034 8.28204 28.2031C8.2818 28.2031 8.28157 28.2031 8.28126 28.2031C7.91297 28.2031 7.5661 28.3763 7.34469 28.6706L0.235318 38.1238C-0.0316348 38.4787 -0.0749942 38.9541 0.123365 39.3515C0.321725 39.7489 0.72774 40 1.17188 40C2.29422 40 37.7095 40 38.8281 40C39.2627 40 39.6615 39.7595 39.8644 39.3753C40.0673 38.9911 40.0409 38.5261 39.7959 38.1673ZM11.7969 18.8281C11.7969 14.9511 14.9511 11.7969 18.8281 11.7969C22.2859 11.7969 25.1686 14.3059 25.7516 17.5989L25.6553 17.4578C25.4369 17.1379 25.0746 16.9467 24.6876 16.9467C24.6854 16.9467 24.6832 16.9467 24.681 16.9467C24.2915 16.9489 23.9285 17.1445 23.7125 17.4686L18.9815 24.5655L18.6331 24.04C18.4163 23.713 18.0502 23.5162 17.6578 23.5157C17.6574 23.5157 17.6569 23.5157 17.6563 23.5157C17.2645 23.5157 16.8986 23.7115 16.6813 24.0375L15.8925 25.2207C13.4113 24.0872 11.7969 21.616 11.7969 18.8281ZM3.51954 37.6562L8.28001 31.3264L10.6526 34.4898C10.8808 34.7941 11.243 34.9684 11.6226 34.9581C12.0027 34.9476 12.3541 34.7532 12.5652 34.4368L17.6536 26.8042L24.8483 37.6562H3.51954ZM27.6604 37.6562L20.3859 26.684L24.6991 20.2138C25.575 21.4966 35.9916 36.7522 36.609 37.6562H27.6604Z" fill="#F0E9E2"/>
</g>
<defs>
<clipPath id="clip0">
<rect width="40" height="40" fill="white"/>
</clipPath>
</defs>
</svg>
